<svg xmlns:xlink="http://www.w3.org/1999/xlink" xmlns="http://www.w3.org/2000/svg" preserveAspectRatio="xMidYMin"
	width="16" height="16" viewBox="0 0 24 24" fill="var(--foreground-dimmer)" aria-hidden="true" class="css-492dz9"
	style="--size: 16px; --rotate: 0deg; width: 16px; height: 16px;">
	<path fill-rule="evenodd"
		d="M12 7.75a4.25 4.25 0 1 0 0 8.5 4.25 4.25 0 0 0 0-8.5ZM6.25 12a5.75 5.75 0 1 1 11.5 0 5.75 5.75 0 0 1-11.5 0Z"
		clip-rule="evenodd" fill="#3d3366"></path>
	<path
		d="M1 11.25a.75.75 0 0 0 0 1.5h2a.75.75 0 0 0 0-1.5H1ZM21 11.25a.75.75 0 0 0 0 1.5h2a.75.75 0 0 0 0-1.5h-2ZM19.248 20.309a.75.75 0 0 0 1.06-1.061l-1.414-1.414a.75.75 0 0 0-1.06 1.06l1.414 1.415ZM5.106 6.166a.75.75 0 0 0 1.06-1.06L4.752 3.692a.75.75 0 1 0-1.06 1.06l1.414 1.414ZM3.692 19.248a.75.75 0 0 0 1.06 1.06l1.414-1.414a.75.75 0 0 0-1.06-1.06l-1.414 1.414ZM17.834 5.106a.75.75 0 1 0 1.06 1.06l1.415-1.414a.75.75 0 1 0-1.061-1.06l-1.414 1.414ZM11.25 23a.75.75 0 0 0 1.5 0v-2a.75.75 0 0 0-1.5 0v2ZM11.25 3a.75.75 0 0 0 1.5 0V1a.75.75 0 0 0-1.5 0v2Z"
		fill="#3d3366"></path>
</svg>